<svg width="120" height="48" viewBox="0 0 120 48" fill="none" xmlns="http://www.w3.org/2000/svg">
  <path d="M 9.597125053405762 34.930999755859375 L 9.597125053405762 12.024749755859375 L 17.01900005340576 12.024749755859375 Q 21.23775005340576 12.024749755859375 22.51900005340576 12.368499755859375 Q 24.48775005340576 12.884124755859375 25.81587505340576 14.610687255859375 Q 27.14400005340576 16.337249755859375 27.14400005340576 19.071624755859375 Q 27.14400005340576 21.180999755859375 26.37837505340576 22.618499755859375 Q 25.61275005340576 24.055999755859375 24.43306255340576 24.876312255859375 Q 23.25337505340576 25.696624755859375 22.03462505340576 25.962249755859375 Q 20.37837505340576 26.290374755859375 17.23775005340576 26.290374755859375 L 14.222125053405762 26.290374755859375 L 14.222125053405762 34.930999755859375 Z M 14.222125053405762 15.899749755859375 L 14.222125053405762 22.399749755859375 L 16.75337505340576 22.399749755859375 Q 19.48775005340576 22.399749755859375 20.40962505340576 22.040374755859375 Q 21.33150005340576 21.680999755859375 21.85493755340576 20.915374755859375 Q 22.37837505340576 20.149749755859375 22.37837505340576 19.134124755859375 Q 22.37837505340576 17.884124755859375 21.64400005340576 17.071624755859375 Q 20.90962505340576 16.259124755859375 19.78462505340576 16.055999755859375 Q 18.95650005340576 15.899749755859375 16.45650005340576 15.899749755859375 Z M 7.269000053405762 37.19141642252604 L 28.61275005340576 37.19141642252604 L 28.61275005340576 38.639853922526044 L 7.269000053405762 38.639853922526044 Z M 30.800251007080078 34.930999755859375 L 30.800251007080078 12.024749755859375 L 35.42525100708008 12.024749755859375 L 35.42525100708008 34.930999755859375 Z M 28.612751007080078 37.19141642252604 L 37.50337600708008 37.19141642252604 L 37.50337600708008 38.639853922526044 L 28.612751007080078 38.639853922526044 Z M 39.95650100708008 34.930999755859375 L 39.95650100708008 12.212249755859375 L 44.58150100708008 12.212249755859375 L 44.58150100708008 31.071624755859375 L 56.08150100708008 31.071624755859375 L 56.08150100708008 34.930999755859375 Z M 37.50337600708008 37.19141642252604 L 57.05025100708008 37.19141642252604 L 57.05025100708008 38.639853922526044 L 37.50337600708008 38.639853922526044 Z" transform="matrix(1, 0, 0, 1, 0, 0)" style="fill: rgb(255, 255, 255); white-space: pre; text-decoration: underline solid rgba(255, 255, 255, 0.8);"/>
  <path d="M 80.03462600708008 34.930999755859375 L 75.00337600708008 34.930999755859375 L 73.00337600708008 29.727874755859375 L 63.84712600708008 29.727874755859375 L 61.95650100708008 34.930999755859375 L 57.05025100708008 34.930999755859375 L 65.97212600708008 12.024749755859375 L 70.86275100708008 12.024749755859375 Z M 71.51900100708008 25.868499755859375 L 68.36275100708008 17.368499755859375 L 65.26900100708008 25.868499755859375 Z M 57.05025100708008 37.19141642252604 L 80.15962600708008 37.19141642252604 L 80.15962600708008 38.639853922526044 L 57.05025100708008 38.639853922526044 Z M 82.50337219238281 34.930999755859375 L 82.50337219238281 12.024749755859375 L 92.23774719238281 12.024749755859375 Q 95.90962219238281 12.024749755859375 97.57368469238281 12.641937255859375 Q 99.23774719238281 13.259124755859375 100.23774719238281 14.837249755859375 Q 101.23774719238281 16.415374755859375 101.23774719238281 18.446624755859375 Q 101.23774719238281 21.024749755859375 99.72212219238281 22.704437255859375 Q 98.20649719238281 24.384124755859375 95.19087219238281 24.821624755859375 Q 96.69087219238281 25.696624755859375 97.66743469238281 26.743499755859375 Q 98.64399719238281 27.790374755859375 100.30024719238281 30.462249755859375 L 103.09712219238281 34.930999755859375 L 97.56587219238281 34.930999755859375 L 94.22212219238281 29.946624755859375 Q 92.44087219238281 27.274749755859375 91.78462219238281 26.579437255859375 Q 91.12837219238281 25.884124755859375 90.39399719238281 25.626312255859375 Q 89.65962219238281 25.368499755859375 88.06587219238281 25.368499755859375 L 87.12837219238281 25.368499755859375 L 87.12837219238281 34.930999755859375 Z M 87.12837219238281 21.712249755859375 L 90.55024719238281 21.712249755859375 Q 93.87837219238281 21.712249755859375 94.70649719238281 21.430999755859375 Q 95.53462219238281 21.149749755859375 96.00337219238281 20.462249755859375 Q 96.47212219238281 19.774749755859375 96.47212219238281 18.743499755859375 Q 96.47212219238281 17.587249755859375 95.85493469238281 16.876312255859375 Q 95.23774719238281 16.165374755859375 94.11274719238281 15.977874755859375 Q 93.55024719238281 15.899749755859375 90.73774719238281 15.899749755859375 L 87.12837219238281 15.899749755859375 Z M 80.15962219238281 37.19141642252604 L 103.26899719238281 37.19141642252604 L 103.26899719238281 38.639853922526044 L 80.15962219238281 38.639853922526044 Z" transform="matrix(1, 0, 0, 1, 0, 0)" style="fill: rgb(197, 0, 0); white-space: pre; paint-order: fill; text-decoration: underline solid rgba(255, 255, 255, 0.8);"/>
</svg>